<?xml version="1.0" encoding="UTF-8" standalone="no"?>
<!-- Created with Inkscape (http://www.inkscape.org/) -->

<svg
   width="161.63995"
   height="115.40591"
   viewBox="0 0 42.767237 30.534479"
   version="1.1"
   id="svg1"
   xml:space="preserve"
   inkscape:version="1.4.2 (f4327f4, 2025-05-13)"
   sodipodi:docname="clang.svg"
   xmlns:inkscape="http://www.inkscape.org/namespaces/inkscape"
   xmlns:sodipodi="http://sodipodi.sourceforge.net/DTD/sodipodi-0.dtd"
   xmlns="http://www.w3.org/2000/svg"
   xmlns:svg="http://www.w3.org/2000/svg"><sodipodi:namedview
     id="namedview1"
     pagecolor="#ffffff"
     bordercolor="#000000"
     borderopacity="0.25"
     inkscape:showpageshadow="2"
     inkscape:pageopacity="0.0"
     inkscape:pagecheckerboard="0"
     inkscape:deskcolor="#d1d1d1"
     inkscape:document-units="px"
     inkscape:zoom="0.49323376"
     inkscape:cx="-208.82593"
     inkscape:cy="412.58327"
     inkscape:window-width="1920"
     inkscape:window-height="1001"
     inkscape:window-x="-9"
     inkscape:window-y="-9"
     inkscape:window-maximized="1"
     inkscape:current-layer="layer1" /><defs
     id="defs1" /><g
     inkscape:label="Layer 1"
     inkscape:groupmode="layer"
     id="layer1"><g
       id="g3"
       transform="translate(-69.887931,-157.50862)"><path
         style="fill:#ce0000;fill-opacity:1;stroke-width:5.29167;stroke-linecap:square"
         d="m 69.887931,184.10776 6.448274,-7.44397 -2.275861,-5.21551 7.254311,1.32758 4.030171,-0.94828 -1.327587,-4.78879 4.362069,1.04311 1.754312,-6.21121 6.068965,2.27586 3.508619,-6.63793 2.702586,5.21552 4.45689,-3.0819 -1.13793,4.64655 6.92242,0.85345 -5.45259,3.55604 2.98707,6.02155 -7.9181,-1.75431 -1.84914,6.2112 -6.922412,-1.13793 -1.706896,7.58621 -4.741378,-3.69828 -5.452586,6.11638 -0.616381,-5.5 z"
         id="path1" /><path
         style="fill:#f90000;fill-opacity:1;stroke-width:5.29168;stroke-linecap:square"
         d="m 71.717587,183.13816 5.896537,-6.80703 -2.081129,-4.76925 6.633606,1.21397 3.685336,-0.86714 -1.213994,-4.37904 3.988833,0.95386 1.604207,-5.67975 5.549683,2.08111 3.20841,-6.06995 2.471344,4.76926 4.07555,-2.81821 -1.04057,4.24898 6.33012,0.78042 -4.98605,3.25179 2.73149,5.50632 -7.24062,-1.6042 -1.690911,5.67974 -6.330107,-1.04057 -1.560848,6.93711 -4.335688,-3.38184 -4.986044,5.59304 -0.563641,-5.0294 z"
         id="path2" /><path
         style="fill:#ffd800;fill-opacity:1;stroke-width:5.29168;stroke-linecap:square"
         d="m 74.441161,181.69484 5.075238,-5.85891 -1.791259,-4.10496 5.709643,1.04487 3.172024,-0.74635 -1.044904,-3.76911 3.433249,0.82101 1.380765,-4.88865 4.776695,1.79123 2.761526,-5.22449 2.127122,4.10498 3.50788,-2.42568 -0.89563,3.65716 5.44843,0.67172 -4.29157,2.79887 2.35104,4.73937 -6.232116,-1.38077 -1.455387,4.88865 -5.448418,-0.89563 -1.343444,5.97086 -3.731793,-2.91079 -4.291562,4.81401 -0.485133,-4.32889 z"
         id="path3" /></g></g></svg>
