<?xml version="1.0" encoding="UTF-8" standalone="no"?>
<!-- Created with Inkscape (http://www.inkscape.org/) -->

<svg
   width="60.105469"
   height="217.20357"
   viewBox="0 0 15.902905 57.468444"
   version="1.1"
   id="svg1"
   xml:space="preserve"
   inkscape:version="1.4.2 (f4327f4, 2025-05-13)"
   sodipodi:docname="wrench.svg"
   inkscape:export-filename="..\Sprites\Elements\wrench.png"
   inkscape:export-xdpi="220.99084"
   inkscape:export-ydpi="220.99084"
   xmlns:inkscape="http://www.inkscape.org/namespaces/inkscape"
   xmlns:sodipodi="http://sodipodi.sourceforge.net/DTD/sodipodi-0.dtd"
   xmlns="http://www.w3.org/2000/svg"
   xmlns:svg="http://www.w3.org/2000/svg"><sodipodi:namedview
     id="namedview1"
     pagecolor="#ffffff"
     bordercolor="#000000"
     borderopacity="0.25"
     inkscape:showpageshadow="2"
     inkscape:pageopacity="0.0"
     inkscape:pagecheckerboard="0"
     inkscape:deskcolor="#d1d1d1"
     inkscape:document-units="px"
     inkscape:zoom="1.3950758"
     inkscape:cx="-24.371436"
     inkscape:cy="46.950855"
     inkscape:window-width="1920"
     inkscape:window-height="1001"
     inkscape:window-x="-9"
     inkscape:window-y="-9"
     inkscape:window-maximized="1"
     inkscape:current-layer="layer1" /><defs
     id="defs1" /><g
     inkscape:label="Layer 1"
     inkscape:groupmode="layer"
     id="layer1"><path
       id="rect1"
       style="fill:#595959;stroke-width:25;stroke-linecap:round;stroke-linejoin:round"
       d="m 15.899187,7.2434492 a 7.0150913,7.0150913 0 0 0 -6.7828996,-7.23974004 7.0150913,7.0150913 0 0 0 -0.72904,0.0142 L 11.381797,5.6156192 a 3.1965372,3.1965372 0 0 1 0.37589,1.61075 3.1965372,3.1965372 0 0 1 -1.68666,2.71533 3.1965372,3.1965372 0 0 1 -4.3260136,-1.31064 3.1965372,3.1965372 0 0 1 -0.0071,-0.0114 l -0.0026,-0.006 -2.821046,-5.27565 a 7.0150913,7.0150913 0 0 0 -1.037868,3.45026 7.0150913,7.0150913 0 0 0 2.530078,5.6238698 l -1.739586,32.53723 a 7.0150913,7.0150913 0 0 0 -2.66177402,5.27568 l -0.0014,-3e-5 a 7.0150913,7.0150913 0 0 0 6.78289002,7.239715 7.0150913,7.0150913 0 0 0 0.72904,-0.0142 l -2.994569,-5.597735 a 3.1965372,3.1965372 0 0 1 -0.376022,-1.61066 3.1965372,3.1965372 0 0 1 1.686673,-2.71536 3.1965372,3.1965372 0 0 1 4.3260476,1.31064 3.1965372,3.1965372 0 0 1 0.009,0.0114 l 0.003,0.006 2.82103,5.275595 a 7.0150913,7.0150913 0 0 0 1.03788,-3.450255 7.0150913,7.0150913 0 0 0 -3.00407,-5.98514 l 1.70115,-31.80693 a 7.0150913,7.0150913 0 0 0 3.17419,-5.6446898 z" /></g></svg>
